<?xml version="1.0" encoding="utf-8"?>
<!-- Svg Vector Icons : http://www.onlinewebfonts.com/icon -->
<!DOCTYPE svg PUBLIC "-//W3C//DTD SVG 1.1//EN" "http://www.w3.org/Graphics/SVG/1.1/DTD/svg11.dtd">
<svg version="1.1" xmlns="http://www.w3.org/2000/svg" xmlns:xlink="http://www.w3.org/1999/xlink" x="0px" y="0px" viewBox="0 0 1100 1100" enable-background="new 0 0 1000 1000" xml:space="preserve">
<metadata> Svg Vector Icons : http://www.onlinewebfonts.com/icon </metadata>
<g><path d="M409.7,173.2L214.1,317.7h-76.5C65.3,317.7,10,373,10,445.3v106.3c0,72.3,55.3,127.5,127.5,127.5h80.8l212.6,153.1c97.8,51,110.5-17,110.5-63.8V219.9C541.5,181.7,515.9,113.6,409.7,173.2z"/><path d="M851.8,500.5l131.8-131.8c8.5-8.5,8.5-21.3,0-29.8c-8.5-8.5-21.3-8.5-29.8,0L822.1,470.8L690.3,339c-8.5-8.5-21.3-8.5-29.8,0c-8.5,8.5-8.5,21.3,0,29.8l131.8,131.8L660.5,632.3c-8.5,8.5-8.5,21.3,0,29.8c8.5,8.5,21.3,8.5,29.8,0l131.8-131.8l131.8,131.8c8.5,8.5,21.3,8.5,29.8,0c8.5-8.5,8.5-21.3,0-29.8L851.8,500.5z"/></g>
</svg>