<?xml version="1.0" standalone="no"?>
<!DOCTYPE svg PUBLIC "-//W3C//DTD SVG 20010904//EN"
 "http://www.w3.org/TR/2001/REC-SVG-20010904/DTD/svg10.dtd">
<svg version="1.0" xmlns="http://www.w3.org/2000/svg"
 width="30.000000pt" height="30.000000pt" viewBox="0 0 1280.000000 1190.000000"
 preserveAspectRatio="xMidYMid meet">
<g transform="translate(0.000000,1190.000000) scale(0.100000,-0.100000)"
fill="#f3d44a" stroke="none">
<path d="M6015 11637 c-48 -16 -112 -56 -142 -88 -47 -52 -310 -508 -456 -790
-53 -103 -111 -211 -128 -240 -35 -60 -232 -452 -452 -899 -246 -500 -449
-835 -605 -1000 -49 -52 -120 -134 -158 -182 -97 -120 -232 -218 -302 -218
-21 0 -112 -14 -202 -30 -260 -48 -334 -58 -683 -100 -244 -29 -386 -52 -560
-89 -256 -56 -561 -115 -677 -131 -41 -6 -181 -37 -310 -70 -129 -32 -260 -62
-290 -66 -30 -4 -98 -21 -150 -39 -52 -18 -144 -47 -205 -65 -160 -47 -257
-97 -337 -173 -76 -74 -86 -98 -95 -232 -4 -77 -2 -99 17 -150 12 -33 42 -120
67 -192 38 -112 57 -151 123 -250 87 -130 271 -336 491 -548 240 -233 759
-704 964 -875 110 -92 239 -207 286 -256 48 -49 102 -103 120 -120 51 -46 188
-215 241 -297 26 -40 60 -90 76 -113 34 -46 64 -142 70 -225 2 -31 -5 -110
-16 -175 -21 -124 -33 -232 -52 -469 -6 -77 -24 -246 -40 -375 -31 -256 -56
-591 -47 -637 11 -58 -51 -617 -118 -1063 -43 -283 -44 -303 -50 -599 -5 -270
9 -421 44 -470 50 -69 133 -113 259 -137 l80 -15 174 55 c95 30 202 62 238 71
105 27 337 105 446 150 87 36 197 96 399 218 101 61 363 202 465 250 58 27
146 72 195 101 50 29 194 105 320 168 127 64 284 146 350 183 324 182 668 293
772 250 19 -8 47 -15 61 -15 14 0 62 -20 107 -44 45 -24 102 -50 126 -56 53
-14 98 -35 434 -200 143 -71 312 -158 375 -195 326 -190 654 -365 685 -365 3
0 21 -11 39 -25 18 -14 43 -25 56 -25 13 0 56 -18 96 -40 39 -22 101 -50 137
-64 72 -27 102 -44 162 -91 22 -18 51 -36 65 -40 14 -4 36 -15 50 -25 14 -10
36 -21 50 -25 14 -4 57 -26 95 -48 39 -22 98 -55 132 -73 34 -17 80 -46 102
-63 83 -66 218 -95 441 -95 161 1 251 16 334 59 27 14 54 25 61 25 6 0 29 18
50 40 21 22 47 40 57 40 22 0 98 101 143 190 18 36 49 119 70 185 44 142 44
151 -9 487 -19 117 -37 242 -41 278 -4 36 -15 101 -25 145 -10 44 -37 190 -60
325 -22 135 -46 263 -52 285 -6 22 -14 67 -18 100 -5 33 -20 137 -35 230 -15
94 -30 217 -35 275 -5 58 -13 121 -19 140 -17 58 -41 452 -41 668 0 238 13
338 71 532 45 151 122 308 173 355 19 17 51 52 72 79 22 27 64 72 94 100 30
27 98 93 151 145 111 111 272 261 409 381 52 45 169 161 260 256 91 96 215
220 275 276 177 163 284 258 292 258 18 1 284 272 338 345 80 107 297 368 357
429 78 79 128 207 128 326 0 71 -26 193 -50 237 -44 79 -68 115 -100 148 -62
64 -246 163 -410 219 -105 37 -181 51 -935 170 -275 44 -383 60 -780 121 -93
14 -296 46 -450 71 -154 24 -392 60 -528 80 -300 42 -366 57 -434 95 -58 33
-229 207 -331 336 -37 48 -90 112 -117 143 -56 63 -73 88 -166 235 -130 207
-192 313 -241 409 -28 55 -78 150 -113 210 -34 61 -86 156 -115 211 -28 55
-81 154 -116 220 -36 66 -94 179 -130 250 -73 146 -90 180 -180 350 -34 66
-70 143 -79 170 -20 59 -165 325 -243 445 -59 92 -222 259 -283 290 -63 33
-153 50 -285 54 -71 2 -147 7 -169 10 -23 3 -57 0 -80 -7z"/>
</g>
</svg>
